<svg xmlns="http://www.w3.org/2000/svg" enable-background="new 0 0 60 60" viewBox="0 0 60 60" id="apple-weather">
  <g>
    <path fill="#FFF" d="M50,60H10C4.477,60,0,55.523,0,50V10C0,4.477,4.477,0,10,0h40c5.523,0,10,4.477,10,10v40
		C60,55.523,55.523,60,50,60z"></path>
  </g>
  <g>
    <path fill="#A7D3FC" d="M40,27c-0.561,0-1.109,0.055-1.647,0.137C36.743,22.407,32.274,19,27,19c-6.627,0-12,5.373-12,12
		c0,0.173,0.019,0.342,0.026,0.514C11.519,32.743,9,36.073,9,40c0,4.97,4.029,9,9,9c3.927,0,17.57,0,22,0c6.075,0,11-4.925,11-11
		S46.075,27,40,27z"></path>
    <path fill="#FC6030" d="M47.991,35.16c-0.259,0-0.51-0.134-0.649-0.374c-0.208-0.358-0.085-0.817,0.273-1.025
		C51.09,31.747,53.25,28.007,53.25,24c0-6.203-5.047-11.25-11.25-11.25c-4.237,0-8.074,2.342-10.013,6.112
		c-0.189,0.369-0.642,0.515-1.01,0.324c-0.368-0.189-0.513-0.642-0.324-1.01C32.851,13.904,37.199,11.25,42,11.25
		c7.03,0,12.75,5.72,12.75,12.75c0,4.54-2.446,8.777-6.384,11.06C48.248,35.128,48.119,35.16,47.991,35.16z"></path>
    <path fill="#0082F7" d="M37,47.5H15C9.21,47.5,4.5,42.79,4.5,37c0-4.078,2.374-7.762,6.008-9.482
		C10.763,20.296,16.717,14.5,24,14.5c5.369,0,10.182,3.178,12.33,8.021C36.559,22.507,36.78,22.5,37,22.5
		c6.893,0,12.5,5.607,12.5,12.5S43.893,47.5,37,47.5z M24,17.5c-5.79,0-10.5,4.71-10.5,10.5c0,0.074,0.006,0.146,0.011,0.219
		l0.014,0.231c0.028,0.66-0.379,1.261-1.002,1.479C9.518,30.982,7.5,33.824,7.5,37c0,4.136,3.364,7.5,7.5,7.5h22
		c5.238,0,9.5-4.262,9.5-9.5s-4.262-9.5-9.5-9.5c-0.427,0-0.88,0.038-1.424,0.12c-0.713,0.102-1.409-0.312-1.643-1
		C32.483,20.361,28.492,17.5,24,17.5z"></path>
  </g>
</svg>
